#!OML:ASF H:\Terrain\Patient Classification 1\Terrain2\Thursday\justin.ASF
:FULLY-SPECIFIED
:DEGREES
1722
root -12.5167 17.2198 -9.90647 188.741 56.5275 -166.482
lowerback 4.48379 1.60284 5.03546
upperback 2.92313 2.53956 4.19483
thorax 0.520831 1.39719 1.39939
lowerneck -12.5741 -5.78407 -10.4182
upperneck 39.2555 -4.95288 5.29441
head 16.8081 -1.98898 3.62059
rclavicle 1.59227e-013 -9.14409e-015
rhumerus -27.1312 -3.8655 -80.2243
rradius 34.9995
rwrist -17.7733
rhand -21.3302 12.7827
rfingers 7.12502
rthumb 5.05556 -17.137
lclavicle 1.59227e-013 -9.14409e-015
lhumerus -37.0268 9.80063 87.0484
lradius 22.177
lwrist -3.66745
lhand -15.8399 21.6754
lfingers 7.12502
lthumb 10.3546 51.4004
rfemur -7.18926 4.56815 25.9825
rtibia 28.3777
rfoot -16.6755 32.743
rtoes 13.0505
lfemur -9.01392 -18.9667 -7.10096
ltibia 37.0374
lfoot -5.30075 -24.0881
ltoes 24.1711
1723
root -12.5347 17.2156 -9.94314 189.134 57.6377 -166.236
lowerback 4.37519 1.64543 4.84809
upperback 2.92343 2.57562 4.20059
thorax 0.573531 1.41124 1.51192
lowerneck -12.6803 -5.87464 -10.6097
upperneck 39.3192 -5.10693 5.42489
head 16.9039 -2.07467 3.68606
rclavicle 1.86858e-014 -1.55052e-014
rhumerus -26.903 -4.99319 -79.6944
rradius 34.2431
rwrist -17.06
rhand -21.5228 12.8252
rfingers 7.12502
rthumb 4.86955 -17.0989
lclavicle 1.86858e-014 -1.55052e-014
lhumerus -36.9513 9.11162 87.3293
lradius 22.4341
lwrist -3.0252
lhand -15.3865 21.7943
lfingers 7.12502
lthumb 10.7919 51.497
rfemur -7.44702 5.30472 25.7942
rtibia 28.5313
rfoot -16.1125 33.1096
rtoes 11.2599
lfemur -8.54682 -18.4566 -7.34563
ltibia 36.7425
lfoot -5.66787 -23.7818
ltoes 25.9992
1724
root -12.5532 17.2054 -9.98368 189.873 58.7407 -165.604
lowerback 4.233 1.75995 5.01521
upperback 2.92462 2.71595 4.12334
thorax 0.667432 1.48288 1.34058
lowerneck -12.659 -5.97545 -10.5786
upperneck 39.2018 -5.42766 5.69063
head 16.8799 -2.17935 3.73468
rclavicle 1.08189e-013 -3.29983e-014
rhumerus -27.1223 -5.42676 -79.4348
rradius 34.2773
rwrist -17.4815
rhand -21.7134 12.7927
rfingers 7.12502
rthumb 4.68555 -17.1354
lclavicle 1.08189e-013 -3.29983e-014
lhumerus -36.6983 8.10942 87.4512
lradius 22.579
lwrist -2.65323
lhand -14.9532 21.7017
lfingers 7.12502
lthumb 11.2099 51.3822
rfemur -7.71774 5.95543 25.7793
rtibia 28.7067
rfoot -14.8693 33.582
rtoes 12.3171
lfemur -8.10827 -17.5425 -7.38621
ltibia 36.3589
lfoot -6.77119 -23.5577
ltoes 24.0165
1725
root -12.5664 17.2024 -10.0258 189.945 59.685 -165.749
lowerback 4.04706 1.71276 4.69073
upperback 2.90993 2.6156 4.00585
thorax 0.745394 1.42451 1.40919
lowerneck -12.5284 -5.99893 -10.5321
upperneck 39.1056 -5.56772 5.7809
head 16.811 -2.23091 3.73476
rclavicle -8.39368e-014 -2.18663e-014
rhumerus -27.172 -5.83903 -79.1897
rradius 33.9573
rwrist -17.5164
rhand -21.7057 12.9235
rfingers 7.12502
rthumb 4.69297 -17.0045
lclavicle -8.39368e-014 -2.18663e-014
lhumerus -36.6886 7.85713 87.3154
lradius 22.7753
lwrist -2.90566
lhand -14.8666 21.6187
lfingers 7.12502
lthumb 11.2934 51.2947
rfemur -8.02789 6.26243 25.3094
rtibia 28.8772
rfoot -12.8795 34.3009
rtoes 17.4201
lfemur -7.73349 -16.6305 -7.84234
ltibia 35.9556
lfoot -7.97552 -23.2557
ltoes 21.8547
1726
root -12.5782 17.1972 -10.0642 190.068 60.3363 -165.618
lowerback 4.0593 1.454 4.4446
upperback 2.94365 2.26142 4.0393
thorax 0.758627 1.24393 1.59156
lowerneck -12.4304 -5.95158 -10.4643
upperneck 38.9584 -5.47983 5.52098
head 16.6803 -2.23746 3.60736
rclavicle -5.47652e-014 -5.1684e-015
rhumerus -27.0385 -6.13884 -78.8953
rradius 33.4769
rwrist -17.3634
rhand -21.461 12.9993
rfingers 7.12502
rthumb 4.9292 -16.9234
lclavicle -5.47652e-014 -5.1684e-015
lhumerus -36.7997 8.36583 87.0273
lradius 23.0347
lwrist -3.10262
lhand -14.9741 21.4977
lfingers 7.12502
lthumb 11.1897 51.1793
rfemur -8.19356 6.34921 25.0956
rtibia 29.0979
rfoot -9.8138 34.9469
rtoes 23.4515
lfemur -7.22948 -15.8604 -8.1036
ltibia 35.5565
lfoot -8.72611 -23.1409
ltoes 21.6365
1727
root -12.5984 17.1859 -10.0892 191.463 60.7665 -164.014
lowerback 4.2635 1.1907 4.89025
upperback 2.92872 1.95617 4.23934
thorax 0.636246 1.10048 1.5538
lowerneck -12.4343 -5.89954 -10.143
upperneck 38.8877 -5.41588 5.19069
head 16.6033 -2.22191 3.4036
rclavicle 6.86801e-014 -8.34896e-015
rhumerus -26.9913 -6.61799 -78.5952
rradius 33.1145
rwrist -17.1964
rhand -21.0651 12.9351
rfingers 7.12502
rthumb 5.31151 -16.9783
lclavicle 6.86801e-014 -8.34896e-015
lhumerus -36.7886 8.19935 86.9109
lradius 23.2316
lwrist -2.77379
lhand -15.5627 21.5725
lfingers 7.12502
lthumb 10.622 51.284
rfemur -8.40364 6.74826 25.7747
rtibia 29.4924
rfoot -13.6055 34.9569
rtoes 15.8678
lfemur -6.73922 -15.2321 -7.47404
ltibia 35.081
lfoot -9.10864 -23.1001
ltoes 21.8432
1728
root -12.6263 17.1827 -10.121 191.832 61.4716 -163.937
lowerback 4.25822 1.11754 4.64905
upperback 2.78142 1.8449 4.14475
thorax 0.481479 1.03307 1.59092
lowerneck -12.4307 -5.96168 -9.91936
upperneck 38.9899 -5.56938 5.11836
head 16.6591 -2.2678 3.3062
rclavicle -5.87409e-014 -3.57812e-015
rhumerus -27.3567 -6.11518 -78.5794
rradius 33.4468
rwrist -18.4987
rhand -21.8513 11.6733
rfingers 7.12502
rthumb 4.55237 -18.2577
lclavicle -5.87409e-014 -3.57812e-015
lhumerus -36.694 7.61476 86.7668
lradius 23.3435
lwrist -2.58238
lhand -15.4563 21.6333
lfingers 7.12502
lthumb 10.7246 51.3395
rfemur -8.96075 7.2043 25.4599
rtibia 29.9357
rfoot -13.9207 34.978
rtoes 14.7544
lfemur -6.50379 -14.8099 -7.81768
ltibia 34.61
lfoot -9.7868 -22.3295
ltoes 21.5376
1729
root -12.6554 17.1772 -10.1791 190.355 62.7289 -166.045
lowerback 4.06296 1.17131 3.57839
upperback 2.66684 1.83413 3.68827
thorax 0.452708 1.0003 1.71929
lowerneck -12.4914 -6.04133 -10.0929
upperneck 39.1922 -5.74893 5.39051
head 16.8267 -2.33518 3.43616
rclavicle 1.61016e-014 -1.43125e-014
rhumerus -27.6788 -5.23905 -78.736
rradius 33.8998
rwrist -20.3321
rhand -23.2255 10.1071
rfingers 7.12502
rthumb 3.22531 -19.8483
lclavicle 1.61016e-014 -1.43125e-014
lhumerus -36.5564 7.47976 86.4317
lradius 23.4359
lwrist -2.59655
lhand -14.0671 21.7504
lfingers 7.12502
lthumb 12.0644 51.3827
rfemur -9.68582 7.6495 23.8671
rtibia 30.4973
rfoot -13.7392 35.4762
rtoes 14.7449
lfemur -6.20696 -14.1215 -9.5373
ltibia 34.0733
lfoot -10.9863 -21.1309
ltoes 18.8483
1730
root -12.6705 17.163 -10.2133 191.299 63.5346 -165.144
lowerback 3.98128 1.08084 3.65956
upperback 2.67989 1.71187 3.74364
thorax 0.513062 0.941005 1.73766
lowerneck -12.5405 -6.02794 -10.3514
upperneck 39.2125 -5.78141 5.65777
head 16.8801 -2.36215 3.59646
rclavicle 4.77083e-014 0
rhumerus -27.6355 -5.73984 -78.4533
rradius 33.6229
rwrist -20.1577
rhand -23.4514 10.0625
rfingers 7.12502
rthumb 3.0072 -19.896
lclavicle 4.77083e-014 0
lhumerus -36.2785 7.36953 86.1962
lradius 23.4791
lwrist -2.46331
lhand -13.2544 22.0001
lfingers 7.12502
lthumb 12.8479 51.5846
rfemur -10.1094 8.05794 24.0306
rtibia 31.0615
rfoot -14.3558 35.58
rtoes 14.0947
lfemur -5.75327 -13.1136 -9.46844
ltibia 33.4621
lfoot -12.1411 -20.6228
ltoes 14.4571
1731
root -12.6916 17.1585 -10.2534 191.822 64.24 -164.784
lowerback 3.90243 0.90228 3.50982
upperback 2.62264 1.46637 3.8354
thorax 0.492845 0.814922 1.92491
lowerneck -12.41 -5.90132 -10.3784
upperneck 39.0203 -5.61275 5.58887
head 16.7184 -2.32112 3.58782
rclavicle 8.74653e-015 4.6118e-014
rhumerus -27.5762 -6.70472 -77.7552
rradius 33.0579
rwrist -19.1658
rhand -22.8974 10.516
rfingers 7.12502
rthumb 3.54218 -19.4343
lclavicle 8.74653e-015 4.6118e-014
lhumerus -36.2472 7.34201 86.0713
lradius 23.5939
lwrist -2.46347
lhand -13.942 21.9047
lfingers 7.12502
lthumb 12.1851 51.5298
rfemur -10.5303 8.09874 23.8546
rtibia 31.463
rfoot -14.8504 35.803
rtoes 13.1817
lfemur -5.42332 -12.4185 -9.64837
ltibia 32.8567
lfoot -12.7321 -20.1542
ltoes 13.7098
